<?xml version="1.0" encoding="UTF-8" standalone="no"?>
<!-- Created with Inkscape (http://www.inkscape.org/) -->

<svg
   xmlns:dc="http://purl.org/dc/elements/1.1/"
   xmlns:cc="http://creativecommons.org/ns#"
   xmlns:rdf="http://www.w3.org/1999/02/22-rdf-syntax-ns#"
   xmlns:svg="http://www.w3.org/2000/svg"
   xmlns="http://www.w3.org/2000/svg"
   xmlns:sodipodi="http://sodipodi.sourceforge.net/DTD/sodipodi-0.dtd"
   xmlns:inkscape="http://www.inkscape.org/namespaces/inkscape"
   width="724.29254"
   height="821.61566"
   id="svg3702"
   version="1.1"
   inkscape:version="0.47 r22583"
   sodipodi:docname="Новый документ 4">
  <defs
     id="defs3704">
    <inkscape:perspective
       sodipodi:type="inkscape:persp3d"
       inkscape:vp_x="0 : 526.18109 : 1"
       inkscape:vp_y="0 : 1000 : 0"
       inkscape:vp_z="744.09448 : 526.18109 : 1"
       inkscape:persp3d-origin="372.04724 : 350.78739 : 1"
       id="perspective3710" />
    <inkscape:perspective
       id="perspective3727"
       inkscape:persp3d-origin="0.5 : 0.33333333 : 1"
       inkscape:vp_z="1 : 0.5 : 1"
       inkscape:vp_y="0 : 1000 : 0"
       inkscape:vp_x="0 : 0.5 : 1"
       sodipodi:type="inkscape:persp3d" />
  </defs>
  <sodipodi:namedview
     id="base"
     pagecolor="#ffffff"
     bordercolor="#666666"
     borderopacity="1.0"
     inkscape:pageopacity="0.0"
     inkscape:pageshadow="2"
     inkscape:zoom="0.35"
     inkscape:cx="545.71769"
     inkscape:cy="376.52211"
     inkscape:document-units="px"
     inkscape:current-layer="layer1"
     showgrid="false"
     inkscape:window-width="1280"
     inkscape:window-height="904"
     inkscape:window-x="-4"
     inkscape:window-y="-4"
     inkscape:window-maximized="1" />
  <metadata
     id="metadata3707">
    <rdf:RDF>
      <cc:Work
         rdf:about="">
        <dc:format>image/svg+xml</dc:format>
        <dc:type
           rdf:resource="http://purl.org/dc/dcmitype/StillImage" />
        <dc:title></dc:title>
      </cc:Work>
    </rdf:RDF>
  </metadata>
  <g
     inkscape:label="Layer 1"
     inkscape:groupmode="layer"
     id="layer1"
     transform="translate(170.71769,-87.268608)">
    <g
       transform="translate(90.223592,-1194.0067)"
       id="g3712">
      <path
         sodipodi:nodetypes="csssscsscsscscssssscccscsssccccssccccsscccccsscccscccccscssscscsssscccccsssssssscscsssssc"
         id="path3654"
         d="m 169.4375,1281.2812 c -9.50133,0.1235 -18.9342,2.1651 -26.9375,6.5626 -10.1416,5.572 -17.12538,16.8443 -20.71875,27.8437 -4.69514,14.3721 -7.05467,32.5429 0.375,45.375 17.07774,29.4956 11.39958,42.1731 26.53125,48 11.33725,4.3657 15.87754,22.1654 3.625,28.0625 -18.1448,6.7672 -34.32079,12.9938 -47.16472,22.9282 -2.06658,1.5985 -4.60006,-0.3386 -11.138851,2.6432 -41.9963,19.1507 -46.890326,48.175 -64.977679,69.2724 -8.374884,3.5384 -6.16511,10.4936 -16.176199,14.3027 -4.5501214,1.7313 -20.2590184,1.6355 -25.517919,2.0494 -30.28348,2.3837 -73.619833,17.2474 -136.104992,7.9336 -3.6459,-0.5118 -8.16148,5.3387 -9.34375,5.625 -5.51352,1.3343 -5.76816,0.1201 -7.84375,-2.8438 -13.36107,-14.9192 -37.69684,-14.1 -54.34375,-18.875 -4.19276,-1.2027 -7.0676,-1.6381 -9.1875,-1.625 -4.66378,0.029 -5.71922,2.2403 -9.4375,3.3125 -9.91847,2.86 -17.76346,19.556 -12.84375,19.6875 11.05083,0.2952 9.76296,-2.6789 19.9375,-0.4688 4.12316,0.896 16.3303,12.39 26.125,13.9063 -3.71711,2.277 -2.54181,2.8415 -6.78125,5.3125 -3.91028,-2.1019 -16.97659,0.6373 -19.78125,7.3125 3.0771,3.912 13.17242,3.6259 20.25,6.2187 12.54358,4.5955 25.3675,0.4822 30.78125,-6.875 5.0094,1.7685 10.3178,-3.5226 15.4375,-2.1562 3.17045,0.8461 5.86072,5.729 9.0625,6.5312 36.86355,9.2389 76.130546,11.8408 112.500003,22.9688 18.355674,5.6163 75.185578,8.2836 85.299107,4.2143 L 64,1602.5625 c 25.838279,-19.8079 33.378232,-30.5147 37.46875,-39.0313 4.55859,10.0855 6.16739,23.5149 6.21875,37.5313 -5.90689,2.3676 -24.007527,8.1127 -38.502558,14.9088 -3.312273,1.553 -2.448409,4.9702 -5.301104,6.0959 -4.662829,1.8399 -9.624966,3.3519 -10.819772,4.2741 -28.560122,-5.8659 -30.4328,-4.4844 -50.5506024,19.6039 10.0962334,18.4503 9.7129884,19.1284 9.9332164,24.3207 12.331472,7.2289 32.184585,-1.3529 48.260945,-16.3648 -0.05976,-0.06 4.941089,-0.7353 11.568329,-1.652 2.569859,-0.3554 2.101279,2.7883 4.960006,2.3822 10.470558,-1.4877 24.56602,-6.4521 26.3865,-7.2542 -2.23321,15.6959 -4.140686,26.6225 -2.90371,26.6225 l 13.5625,10.7188 -3.71875,4.3124 -18.84375,10.5313 c -26.78588,8.7203 -88.4383577,31.0361 -129.5625,63.7187 -14.764386,11.7339 -59.44789,26.0827 -69.3125,42.1563 -21.23355,34.5982 -25.63343,72.7519 -40,110.7187 -18.36735,35.9457 12.21333,46.9651 2.15625,96.4063 l -20.71875,34.625 c 0,0 -21.24733,25.2021 -92.125,40 -5.63721,1.1769 -2.91501,15 2.84375,15 l 137.84375,0 c 12.14052,0 17.416097,-20.8224 15.71875,-32.8437 -10.54531,-4.1277 -16.93419,-7.4753 -22.125,-16.4376 l 7.84375,-38.1874 C -88.683799,2009.6908 -88.941858,1986.2512 -70,1969 c 33.060552,-30.1098 17.569285,-56.5004 35,-100.7188 6.335537,-3.3351 7.212948,2.2231 9.84375,0.9688 3.524877,-1.6806 5.311421,-12.6687 8.53125,-13.0625 59.549222,-7.2823 115.631978,-31.4591 164.625,-51.8437 9.29882,-3.8691 21.2098,0.5436 31.28125,-0.3438 42.08854,-0.3103 67.55124,51.3111 109.28125,53.5625 37.60609,2.029 9.01239,1.4029 15.71875,21.4375 8.90787,-2.2857 26.56545,-7.6278 16.0625,18.5625 -10.49942,26.1815 -12.67789,39.64 -9.625,84.3125 0.56701,8.297 14.20131,20.3858 15.71875,28.5625 1.91352,10.3109 2.40559,1.3702 -3.59375,28.9423 -0.72791,3.3454 -5.21562,13.1727 -20.53204,21.539 -2.02375,6.4758 -4.36858,9.954 -8.85074,24.0961 18.40098,26.8144 103.58639,14.8301 158.69528,17.1726 7.45024,-8.2882 16.64844,-13.9103 7.125,-20.3125 -31.13176,-5.0989 -96.22059,-8.8436 -94.14531,-46.3491 0,0 4.23036,-17.8171 6.30156,-23.6509 6.56906,-18.5022 35.88732,-48.9799 35,-68.5938 -2.26685,-50.1075 13.74139,-80.5408 2.84375,-127.8437 -2.28785,-9.9308 -11.22485,-17.2092 -18.5625,-24.2813 -37.38654,-36.0331 -105.36071,-58.631 -129.21875,-104.75 -6.12635,-11.8422 -10.53493,-9.9765 -7.15625,-22.875 4.43031,-16.9126 9.38837,2.131 14.78125,-14.5 11.39717,-35.1468 57.69253,-106.9307 58.28125,-148.75 0.31599,-22.4455 -3.58974,-34.1714 -16.4375,-53.0624 -15.24595,-15.1769 -35.94797,-11.2635 -54.8125,-16.0938 -7.9896,-2.0458 -13.20205,-5.5692 -21.875,-9.375 -3.98559,-2.9429 -1.72174,-15.1429 -2.84375,-19.9688 -1.20116,-5.1658 2.35735,-10.4167 2.5,-15.7187 0.37021,-13.7599 -1.161,-27.6874 -4.28125,-41.0937 -3.50913,-15.0774 -6.89194,-31.1138 -16.09375,-43.5626 -5.6047,-7.5821 -13.46175,-14.4391 -22.5,-17.125 -6.80823,-2.0227 -14.23508,-3.0957 -21.625,-3 z"
         style="fill:#000000;stroke:none" />
      <path
         style="fill:#000000;stroke:none"
         d="m -163.56696,1289.7097 154.2857051,324.2858 14.28571,5.7142 25.7142889,52.8572 c 1.666537,3.4257 -1.615829,7.9787 0,11.4286 1.577504,3.368 4.859337,6.9135 8.571429,7.1428 7.91031,0.4887 15.28749,-0.5362 19.37105,-7.3285 2.95449,-4.9144 1.4466,-11.6563 -2.04137,-16.2076 -3.2385,-4.2257 -10.4629,-3.1674 -12.50825,-8.9639 l -180.535703,-364.6428 -27.14286,-4.2858 z"
         id="path2869"
         sodipodi:nodetypes="cccsssssccc" />
      <path
         style="fill:#ffffff;stroke:none"
         d="m 217.8995,1339.3954 c -36.31166,-14.301 -61.1344,11.0205 -65.14764,11.9732 -4.33531,1.0291 -7.72342,-8.9417 -3.70643,-21.7452 3.94346,-12.5691 64.39994,-26.7447 69.71874,-6.1603 3.12622,12.0989 6.55999,18.8564 -0.86467,15.9323 z"
         id="path2849"
         sodipodi:nodetypes="cssss" />
      <path
         sodipodi:nodetypes="csccscscsccccccc"
         style="fill:#ffffff;stroke:none"
         d="m 184.65757,1573.7418 c -2.09362,-0.5428 -0.2152,5.4764 -2.4627,5.9123 -30.47794,5.9108 -48.02648,12.271 -74.88237,21.6934 -0.0464,0.9848 -0.10241,1.9839 -0.15625,2.9687 26.0368,-11.8992 50.29421,-11.7699 77.40415,-21.3866 1.79659,-0.6373 0.83839,-5.2885 2.49449,-4.9199 0.36705,-2.0017 3.44756,1.4119 4.06833,-0.678 7.13512,-24.0211 32.33187,-73.9076 55.55013,-91.9675 -26.06873,11.5917 -50.92002,64.666 -57.53374,88.7374 -0.61061,2.2224 -4.44895,-2.4594 -4.48204,-0.3598 z m 135.08735,-50.4675 c -23.4151,29.2813 -72.04549,87.8859 -96.57377,106.905 -21.86332,6.518 -84.28937,12.8449 -119.85865,15.2307 -0.11398,0.9458 -0.20094,1.7127 -0.3125,2.625 34.31556,-3.3101 97.15628,-4.0135 122.10865,-12.0592 32.70239,-23.4539 72.99292,-81.5499 94.63627,-112.7015 z"
         id="path2857" />
      <path
         style="fill:#000000;stroke:none"
         d="m 2.1428573,1647.5757 c -9.078469,1.3438 -24.9809363,3.5611 -27.1428563,-7.1428 -4.927391,-24.3961 52.685528,-57.3884 70,-45 13.19905,9.4438 1.349489,25.0322 -10,32.1428"
         id="path2853"
         sodipodi:nodetypes="csss" />
    </g>
  </g>
</svg>
