<?xml version="1.0" encoding="UTF-8" standalone="no"?>
<!-- Created with Inkscape (http://www.inkscape.org/) -->

<svg
   xmlns:dc="http://purl.org/dc/elements/1.1/"
   xmlns:cc="http://creativecommons.org/ns#"
   xmlns:rdf="http://www.w3.org/1999/02/22-rdf-syntax-ns#"
   xmlns:svg="http://www.w3.org/2000/svg"
   xmlns="http://www.w3.org/2000/svg"
   xmlns:sodipodi="http://sodipodi.sourceforge.net/DTD/sodipodi-0.dtd"
   xmlns:inkscape="http://www.inkscape.org/namespaces/inkscape"
   width="353.81125"
   height="465.46848"
   id="svg5829"
   version="1.1"
   inkscape:version="0.48.0 r9654"
   sodipodi:docname="New document 2">
  <defs
     id="defs5831">
    <filter
       color-interpolation-filters="sRGB"
       inkscape:collect="always"
       id="filter11025"
       x="-0.11485543"
       width="1.2297109"
       y="-0.76707023"
       height="2.5341403">
      <feGaussianBlur
         inkscape:collect="always"
         stdDeviation="8.9491525"
         id="feGaussianBlur11027" />
    </filter>
  </defs>
  <sodipodi:namedview
     id="base"
     pagecolor="#ffffff"
     bordercolor="#666666"
     borderopacity="1.0"
     inkscape:pageopacity="0.0"
     inkscape:pageshadow="2"
     inkscape:zoom="1"
     inkscape:cx="176.9063"
     inkscape:cy="232.74024"
     inkscape:document-units="px"
     inkscape:current-layer="layer1"
     showgrid="false"
     fit-margin-top="0"
     fit-margin-left="0"
     fit-margin-right="0"
     fit-margin-bottom="0"
     inkscape:window-width="1440"
     inkscape:window-height="851"
     inkscape:window-x="0"
     inkscape:window-y="26"
     inkscape:window-maximized="1" />
  <metadata
     id="metadata5834">
    <rdf:RDF>
      <cc:Work
         rdf:about="">
        <dc:format>image/svg+xml</dc:format>
        <dc:type
           rdf:resource="http://purl.org/dc/dcmitype/StillImage" />
        <dc:title></dc:title>
      </cc:Work>
    </rdf:RDF>
  </metadata>
  <g
     inkscape:label="Layer 1"
     inkscape:groupmode="layer"
     id="layer1"
     transform="translate(-198.0937,-299.63395)">
    <g
       id="g5910">
      <g
         id="g5893">
        <path
           sodipodi:type="arc"
           style="fill:#000000;fill-opacity:1;stroke:none;display:inline;filter:url(#filter11025)"
           id="path10961"
           sodipodi:cx="801.5"
           sodipodi:cy="745"
           sodipodi:rx="93.5"
           sodipodi:ry="14"
           d="m 895,745 a 93.5,14 0 1 1 -187,0 93.5,14 0 1 1 187,0 z"
           transform="matrix(1.1967396,0,0,1.1967396,-546.48147,-168.92645)" />
        <g
           id="g5878">
          <path
             inkscape:connector-curvature="0"
             id="path3781"
             d="m 370.89798,356.53947 c -26.03526,-12.46254 -29.62411,33.28054 -54.51736,8.38729 -34.35368,-34.35367 -29.1554,-0.63223 -54.51737,-9.08622 -22.97968,-7.6599 -6.44855,-38.17131 -18.17246,-44.03326 -10.80552,-5.40276 -23.73104,9.08622 -23.06504,9.08622 11.45984,0 17.47352,-10.80554 17.47352,6.29047 0,7.86506 -7.43846,18.5473 -2.09682,26.55974 18.64966,27.97451 37.95585,-3.19069 51.7216,1.39788 9.73034,3.24345 15.83592,18.40208 25.16186,23.06504 9.21921,4.60961 36.1554,3.87374 41.23749,-6.29046 1.3814,-2.7628 3.0469,-9.56126 6.29048,-11.18305 5.00056,-2.50028 8.25296,0.26864 10.4841,-4.19365 z"
             style="fill:#1a1a1a;stroke:#000000;stroke-width:1.95703363;stroke-linecap:butt;stroke-linejoin:miter;stroke-opacity:1;display:inline" />
          <path
             inkscape:connector-curvature="0"
             id="path3783"
             d="m 359.01599,380.30346 c -22.5944,-18.36914 -38.50969,19.3147 -58.71101,12.58093 -2.3557,-0.78523 -8.3394,-32.41617 -26.55974,-20.26927 -10.83265,7.22175 -22.95308,14.01612 -37.74279,9.08622 -12.65125,-4.21709 -6.5745,-22.15864 -15.3767,-26.55975 -8.5723,-4.28614 -15.00719,15.7462 -15.37669,15.3767 -0.9606,-0.9606 2.27963,-1.48928 3.49471,-2.09682 18.91077,-9.45538 19.57885,33.31333 41.93643,25.8608 9.56337,-3.18779 23.57866,-18.23423 34.24809,-14.67776 13.04122,4.34708 18.29365,27.19809 37.74279,17.47353 9.01134,-4.50568 23.96361,-22.27739 36.34491,-16.77458 5.41116,2.40496 2.2886,3.4947 6.9894,3.4947"
             style="fill:#1a1a1a;stroke:#000000;stroke-width:1.95703363;stroke-linecap:butt;stroke-linejoin:miter;stroke-opacity:1;display:inline" />
          <path
             sodipodi:nodetypes="cssssc"
             inkscape:connector-curvature="0"
             id="path3011"
             d="m 404.06271,516.28234 c -12.38738,10.78414 -27.38997,18.14156 -37.74279,31.45233 -50.33394,64.71507 105.73508,123.95671 120.21778,66.39937 11.46868,-45.579 -13.97881,-37.27603 -13.97881,-53.81844 0,-17.92871 -4.21465,-37.40381 -21.66716,-46.13007 -23.48602,-11.74301 -41.62534,4.17829 -46.82902,2.09681 z"
             style="fill:#111111;fill-opacity:1;stroke:none;display:inline" />
          <path
             sodipodi:nodetypes="csccssccsssc"
             inkscape:connector-curvature="0"
             id="path3001"
             d="m 495.3094,559.97334 c 4.54013,25.20948 11.28301,78.26742 4.19365,117.37987 -1.02067,5.63103 -7.0611,27.46478 -1.39788,30.75338 14.93486,8.53963 18.30243,13.32421 15.37669,16.07564 -9.08622,7.00407 -35.7482,-3.95704 -46.82901,-9.78516 -21.09555,-11.09553 14.03977,-23.92349 -30.05445,-34.94704 -21.77816,-5.44454 -53.46131,-3.50999 -64.30254,18.17245 -5.14535,12.77238 -6.61147,18.86117 -20.26927,20.96822 -5.22859,1.03294 -37.55225,11.5872 -41.2375,2.09682 -3.80131,-9.78927 15.48688,-4.52418 20.26928,-18.87139 2.80721,-8.42164 -0.0612,-19.37505 -0.69894,-27.95762 -0.93005,-12.51653 -1.66588,-78.12788 7.93298,-112.59933"
             style="fill:#111111;fill-opacity:1;stroke:#000000;stroke-width:2.93555045;stroke-linecap:butt;stroke-linejoin:miter;stroke-opacity:1;display:inline" />
          <path
             sodipodi:nodetypes="cssssssssccscc"
             inkscape:connector-curvature="0"
             id="path2985"
             d="m 405.49554,540.71032 c 21.24574,5.31144 24.86974,7.74206 46.47253,14.01043 15.21889,4.41598 29.72014,7.72484 44.94889,4.08213 5.09065,-1.21768 18.58323,-5.03052 17.46685,-23.50583 -1.17925,-19.51572 -11.92634,-52.88121 -27.46169,-63.43237 -18.70912,-12.70669 -15.14771,-25.58272 -13.87577,-53.7389 0.9871,-21.85094 2.16005,-46.32073 -6.39351,-62.98419 -19.39673,-37.78731 -100.07178,-38.77078 -116.02413,9.08624 -6.03891,18.11671 -4.27662,44.42485 0.56053,69.38747 3.44116,17.75844 12.05026,22.71894 -0.56053,38.94831 -18.91644,22.03889 -22.24134,27.713 -29.77488,43.71874 -5.75558,11.8849 -7.40439,35.98525 17.05416,44.1381 5.00473,1.66824 19.66566,2.06504 25.23175,0.20968 13.0966,-1.39752 59.15807,-37.54991 104.59646,-32.25611"
             style="fill:#111111;fill-opacity:1;stroke:#000000;stroke-width:2.93555045;stroke-linecap:butt;stroke-linejoin:miter;stroke-opacity:1;display:inline" />
          <path
             sodipodi:nodetypes="cc"
             inkscape:connector-curvature="0"
             id="path3040"
             d="m 361.91659,516.42214 c 1.77135,-2.19558 4.39923,-5.61828 6.11573,-9.05129"
             style="fill:none;stroke:#000000;stroke-width:2.93555045;stroke-linecap:round;stroke-linejoin:round;stroke-opacity:1;display:inline" />
          <path
             sodipodi:nodetypes="cc"
             inkscape:connector-curvature="0"
             id="path2989"
             d="M 339.96986,526.48689 C 357.2997,511.70927 446.09687,494.082 466.30337,511.45966"
             style="fill:none;stroke:#000000;stroke-width:2.93555045;stroke-linecap:round;stroke-linejoin:round;stroke-opacity:1;display:inline" />
          <path
             sodipodi:nodetypes="csc"
             inkscape:connector-curvature="0"
             id="path2987"
             d="m 447.68941,526.8752 c 13.8365,1.80765 28.44417,6.17579 28.74859,3.70049 0.6388,-5.19405 -10.27325,-19.46433 -14.08364,-23.27473"
             style="fill:none;stroke:#000000;stroke-width:2.93555045;stroke-linecap:round;stroke-linejoin:round;stroke-opacity:1;display:inline" />
          <path
             sodipodi:nodetypes="cccssc"
             inkscape:connector-curvature="0"
             id="path3003"
             d="m 365.97028,407.06849 c 42.45902,12.97855 56.21522,12.20626 92.8253,-5.46922 11.52348,-0.58418 7.20097,18.79078 -5.12992,28.27545 -24.86004,8.70995 -32.93568,-3.14098 -42.45574,-2.65405 -12.01978,0.61479 -21.73326,19.51696 -39.95833,5.30811 -15.74226,-12.27315 -14.57735,-26.58075 -5.28131,-25.46029 z"
             style="fill:#d4aa00;fill-opacity:1;stroke:#000000;stroke-width:1.95703363;stroke-linecap:butt;stroke-linejoin:miter;stroke-opacity:1;display:inline" />
          <path
             sodipodi:nodetypes="ccc"
             inkscape:connector-curvature="0"
             id="path3010"
             d="m 432.20912,422.3832 c 9.71639,15.59929 18.97235,2.35213 15.48838,-3.28152 -2.90079,1.21086 -8.58751,3.28152 -15.48838,3.28152 z"
             style="fill:#aa4400;fill-opacity:1;stroke:none;display:inline" />
          <path
             inkscape:connector-curvature="0"
             id="path3007"
             d="m 431.81344,422.09297 c 26.76717,-16.49521 15.97419,13.4807 0,0 z"
             style="fill:#ffffff;stroke:#000000;stroke-width:0.97851682;stroke-linecap:butt;stroke-linejoin:miter;stroke-opacity:1;display:inline" />
          <path
             sodipodi:nodetypes="csc"
             inkscape:connector-curvature="0"
             id="path3008"
             d="m 374.24938,418.87444 c -5.03761,18.56506 14.68883,9.07929 15.42903,4.08705 0.0427,-0.28782 -12.89164,-3.07209 -15.42903,-4.08705 z"
             style="fill:#aa4400;stroke:none;display:inline" />
          <path
             style="fill:#ffffff;stroke:#000000;stroke-width:0.97851682;stroke-linecap:butt;stroke-linejoin:miter;stroke-opacity:1;display:inline"
             d="m 390.02489,422.61986 c -26.76718,-16.4952 -15.97419,13.4807 0,0 z"
             id="path3009"
             inkscape:connector-curvature="0" />
        </g>
      </g>
      <text
         sodipodi:linespacing="125%"
         id="text5874"
         y="807.10242"
         x="263.09369"
         style="font-size:20px;font-style:normal;font-variant:normal;font-weight:bold;font-stretch:normal;line-height:125%;letter-spacing:0px;word-spacing:0px;fill:#cccccc;fill-opacity:1;stroke:none;font-family:Liberation Sans;-inkscape-font-specification:Liberation Sans Bold"
         xml:space="preserve"><tspan
           y="807.10242"
           x="263.09369"
           id="tspan5876"
           sodipodi:role="line">correohector@ymail.com</tspan></text>
    </g>
  </g>
</svg>
